<!-- Generator: Adobe Illustrator 19.2.1, SVG Export Plug-In  -->
<svg version="1.1"
	xmlns="http://www.w3.org/2000/svg" xmlns:xlink="http://www.w3.org/1999/xlink" xmlns:a="http://ns.adobe.com/AdobeSVGViewerExtensions/3.0/"
	x="0px" y="0px" width="460.7px" height="141.7px" viewBox="0 0 460.7 141.7" style="enable-background:new 0 0 460.7 141.7;"
	xml:space="preserve">
<style type="text/css">
	.st0{fill:#FFFFFF;}
</style>
<defs>
</defs>
<g>
	<g>
		<path class="st0" d="M47,0H33.8C15.1,0,0,14,0,31.2v79.3c0,17.2,15.1,31.3,33.8,31.3H47c18.7,0,33.8-14,33.8-31.3V31.2
			C80.8,14,65.7,0,47,0 M45.7,114.9c0,2.5-2,4.5-4.4,4.5h-1.7c-2.4,0-4.4-2-4.4-4.5V26.8c0-2.5,1.9-4.5,4.4-4.5h1.7
			c2.4,0,4.4,2,4.4,4.5V114.9z"/>
		<path class="st0" d="M148.8,1.9H96.5v138h35.5V85h16.9c13.5,0,24.4-11.5,24.4-25.7V27.6C173.1,13.4,162.2,1.9,148.8,1.9
			M143.6,50.5c0,5.4-4.2,9.8-9.3,9.8h-2.4V24.4h2.4c5.1,0,9.3,4.4,9.3,9.7V50.5z"/>
		<rect x="275.1" y="1.9" class="st0" width="33.7" height="28.8"/>
		<rect x="275.1" y="36.9" class="st0" width="33.7" height="104"/>
		<polygon class="st0" points="259.5,1.9 183.9,1.9 183.9,29.6 204.3,29.6 204.3,140.5 238,140.5 238,29.6 259.5,29.6 		"/>
		<polygon class="st0" points="382.6,2.4 374.9,64.1 365.9,2.4 324.5,2.4 324.5,140.5 353.1,140.5 353.1,50.5 365.1,140.5
			384.7,140.5 396.1,50.5 396.1,140.5 424.1,140.5 424.1,2.4 		"/>
	</g>
	<g>
		<path class="st0" d="M446.3,4.1c6.7,0,12.2,5.5,12.2,12.2s-5.5,12.2-12.2,12.2c-6.7,0-12.2-5.5-12.2-12.2S439.6,4.1,446.3,4.1
			M446.3,1.9c-8,0-14.4,6.4-14.4,14.4s6.4,14.4,14.4,14.4c8,0,14.4-6.4,14.4-14.4S454.3,1.9,446.3,1.9L446.3,1.9z"/>
		<path class="st0" d="M447.2,7.9c2,0,3.5,0.4,4.5,1.2c1,0.8,1.4,2,1.4,3.6c0,1.5-0.4,2.6-1.3,3.3c-0.8,0.7-1.9,1.1-3.2,1.3l4.8,7.4
			h-2.8l-4.6-7.2h-2.8v7.2h-2.6V7.9H447.2z M446.1,15.3c0.6,0,1.2,0,1.7-0.1c0.5,0,1-0.1,1.4-0.3c0.4-0.2,0.7-0.5,1-0.8
			c0.2-0.4,0.4-0.9,0.4-1.6c0-0.6-0.1-1-0.3-1.3c-0.2-0.3-0.5-0.6-0.8-0.8c-0.3-0.2-0.7-0.3-1.2-0.4c-0.5-0.1-0.9-0.1-1.3-0.1h-3.5
			v5.4H446.1z"/>
	</g>
</g>
</svg>
